<svg width="260" height="260" version="1.1" viewBox="0 0 32 32" xmlns="http://www.w3.org/2000/svg">
    <path
        fill="#006989"
        d="m6.0381 0c-1.5036 0-2.7131 0.49048-3.6351 1.4714-0.9207 0.98096-1.3846 2.2716-1.3832 3.872 0 1.5849 0.47086 2.849 1.4139 3.7921 0.95012 0.94312 2.2226 1.4139 3.8146 1.4139 0.96554 0 1.9549-0.18918 2.9653-0.56475v-1.9886c-1.002 0.44984-1.8933 0.67406-2.6669 0.67406-1.0692 0-1.9199-0.3083-2.5533-0.91929-0.62641-0.6124-0.94172-1.435-0.94172-2.4748 0-0.98796 0.29288-1.8007 0.87585-2.4341 0.58297-0.64182 1.3271-0.96274 2.2337-0.96274 0.87025 0 1.812 0.32792 2.8293 0.97676v-2.1455c-0.6124-0.27327-1.1253-0.45544-1.5457-0.55213-0.41341-0.1037-0.88286-0.15696-1.4056-0.15696zm5.6363 0.2018v10.168h2.0095v-10.168z"
    />
    <path
        fill="#ecd000"
        d="m16.796 10.55c-1.1444 0-2.1709 0.49988-3.0709 1.4968v-1.2947h-2.0585v10.189h2.0585v-7.275c0.66416-0.95202 1.4744-1.4309 2.4264-1.4309 0.74561 0 1.2792 0.22466 1.5979 0.6754 0.31734 0.44371 0.4732 1.1837 0.47461 2.2242v5.8048h2.0191v-5.8273c0-1.2413-0.14603-2.1428-0.43389-2.7114-0.28083-0.57571-0.69085-1.0264-1.2371-1.3508-0.54622-0.33278-1.1374-0.49988-1.772-0.49988zm10.641 0c-1.4027 0-2.5444 0.49006-3.422 1.4659-0.879 0.96747-1.3214 2.2228-1.3214 3.7744 0 1.0335 0.20922 1.9476 0.62345 2.7381 0.42125 0.78352 0.9773 1.4084 1.6723 1.8731 0.69366 0.46477 1.6021 0.69787 2.7255 0.69787 0.82003 0 1.532-0.08986 2.1371-0.2682 0.61362-0.17693 1.2315-0.4732 1.8521-0.88603v-1.9701c-1.1219 0.82705-2.3477 1.2413-3.6775 1.2413-0.95202 0-1.7328-0.28786-2.3394-0.86496-0.59818-0.57571-0.92254-1.355-0.97448-2.3295h7.1654v-0.25415c0-1.5881-0.40159-2.8547-1.2061-3.7997-0.80458-0.945-1.883-1.4167-3.2338-1.4167zm0 1.751c0.72315 0 1.3003 0.21765 1.7286 0.65434 0.42826 0.43529 0.66839 1.0559 0.72033 1.8606h-5.1294c0.14042-0.80458 0.4367-1.4252 0.89586-1.8606 0.46477-0.43529 1.0615-0.65434 1.7861-0.65434z"
    />
    <path
        fill="#95999c"
        d="m0 21.451 4.6876 10.549h0.6872l4.5761-10.549h-2.2231l-2.6917 6.3805-2.7945-6.3805zm11.671 0v10.371h2.0544v-10.371h-2.053z"
    />
</svg>
