<svg width="260" height="260" version="1.1" viewBox="0 0 32 32" xmlns="http://www.w3.org/2000/svg">
    <rect fill="#f9f9f9" width="32" height="32" />
    <path
        fill="#006989"
        d="m6.8063 1.1429c-1.3962 0-2.5193 0.45545-3.3754 1.3663-0.85494 0.91089-1.2857 2.1093-1.2844 3.5954 0 1.4717 0.43723 2.6455 1.3129 3.5212 0.88225 0.87575 2.0638 1.3129 3.5421 1.3129 0.89657 0 1.8153-0.17567 2.7535-0.52441v-1.8466c-0.93043 0.41771-1.7581 0.62591-2.4764 0.62591-0.99283 0-1.7828-0.28628-2.3709-0.85363-0.58167-0.56866-0.87445-1.3325-0.87445-2.298 0-0.91739 0.27196-1.6721 0.81329-2.2602 0.54133-0.59598 1.2323-0.89397 2.0741-0.89397 0.80809 0 1.6826 0.3045 2.6272 0.90699v-1.9922c-0.56866-0.25375-1.0449-0.42291-1.4353-0.51269-0.38388-0.096293-0.8198-0.14575-1.3052-0.14575zm5.2337 0.18739v9.4417h1.866v-9.4417z"
    />
    <path
        fill="#d6bd00"
        d="m16.796 10.939c-1.0627 0-2.0158 0.46417-2.8516 1.3899v-1.2022h-1.9115v9.4612h1.9115v-6.7554c0.61672-0.88402 1.3691-1.3287 2.2531-1.3287 0.69235 0 1.1878 0.20861 1.4838 0.62716 0.29467 0.41202 0.4394 1.0992 0.44071 2.0653v5.3902h1.8749v-5.4111c0-1.1526-0.1356-1.9897-0.4029-2.5177-0.26077-0.53459-0.6415-0.95308-1.1487-1.2543-0.5072-0.30901-1.0562-0.46417-1.6454-0.46417zm9.8809 0c-1.3025 0-2.3627 0.45506-3.1776 1.3612-0.81622 0.89836-1.227 2.064-1.227 3.5048 0 0.95968 0.19428 1.8085 0.57892 2.5425 0.39116 0.72755 0.90749 1.3078 1.5528 1.7393 0.64411 0.43157 1.4877 0.64802 2.5308 0.64802 0.76146 0 1.4226-0.08344 1.9844-0.24904 0.56979-0.16429 1.1435-0.4394 1.7198-0.82274v-1.8294c-1.0418 0.76798-2.18 1.1526-3.4148 1.1526-0.88402 0-1.609-0.2673-2.1723-0.80318-0.55545-0.53459-0.85664-1.2582-0.90487-2.1631h6.6536v-0.236c0-1.4747-0.3729-2.6508-1.12-3.5283-0.74711-0.8775-1.7485-1.3155-3.0028-1.3155zm0 1.6259c0.6715 0 1.2074 0.2021 1.6051 0.6076 0.39767 0.4042 0.62065 0.98048 0.66888 1.7277h-4.763c0.13039-0.74711 0.40551-1.3234 0.83187-1.7277 0.43157-0.4042 0.98568-0.6076 1.6585-0.6076z"
    />
    <path
        fill="#95999c"
        d="m1.1995 21.062 4.3528 9.7955h0.63811l4.2492-9.7955h-2.0643l-2.4994 5.9248-2.5949-5.9248zm10.837 0v9.6302h1.9077v-9.6302h-1.9064z"
    />
</svg>
