<?xml version="1.0" encoding="iso-8859-1"?>
<!-- Generator: Adobe Illustrator 19.0.0, SVG Export Plug-In . SVG Version: 6.00 Build 0)  -->
<svg xmlns="http://www.w3.org/2000/svg" xmlns:xlink="http://www.w3.org/1999/xlink" version="1.1" id="Layer_1" x="0px" y="0px" viewBox="0 0 512 512" style="enable-background:new 0 0 512 512;" xml:space="preserve" width="512px" height="512px">
<g>
	<g>
		<path d="M368.219,189.145v-34.844h-24.694c11.127-15.918,17.68-35.258,17.68-56.11C361.206,44.047,317.158,0,263.014,0    c-31.273,0-59.156,14.712-77.151,37.56C167.869,14.712,139.985,0,108.712,0C54.568,0,10.521,44.047,10.521,98.192    c0,20.852,6.554,40.191,17.68,56.11H3.507v238.466h138.289L98.439,512h44.778l42.646-117.28L228.509,512h44.778L229.93,392.767    h138.289v-34.844l140.274,42.082V147.063L368.219,189.145z M129.753,280.548H87.671v-42.082h42.082V280.548z M108.712,154.301    c-30.939,0-56.11-25.171-56.11-56.11s25.171-56.11,56.11-56.11s56.11,25.171,56.11,56.11S139.651,154.301,108.712,154.301z     M213.918,280.548h-42.082v-42.082h42.082V280.548z M263.014,154.301c-30.939,0-56.11-25.171-56.11-56.11    s25.171-56.11,56.11-56.11c30.939,0,56.11,25.171,56.11,56.11S293.953,154.301,263.014,154.301z" fill="#555555"/>
	</g>
</g>
<g>
</g>
<g>
</g>
<g>
</g>
<g>
</g>
<g>
</g>
<g>
</g>
<g>
</g>
<g>
</g>
<g>
</g>
<g>
</g>
<g>
</g>
<g>
</g>
<g>
</g>
<g>
</g>
<g>
</g>
</svg>
