<?xml version="1.0" encoding="iso-8859-1"?>
<!-- Generator: Adobe Illustrator 18.0.0, SVG Export Plug-In . SVG Version: 6.00 Build 0)  -->
<!DOCTYPE svg PUBLIC "-//W3C//DTD SVG 1.1//EN" "http://www.w3.org/Graphics/SVG/1.1/DTD/svg11.dtd">
<svg xmlns="http://www.w3.org/2000/svg" xmlns:xlink="http://www.w3.org/1999/xlink" version="1.1" id="Capa_1" x="0px" y="0px" viewBox="0 0 305.218 305.218" style="enable-background:new 0 0 305.218 305.218;" xml:space="preserve" width="512px" height="512px">
<g>
	<polygon points="268.473,104.622 305.218,141.368 305.218,104.622  " fill="#555555"/>
	<polygon points="211.902,104.622 163.973,104.622 224.784,165.434 168.214,165.434 107.402,104.622 56.473,104.622    117.284,165.434 60.714,165.434 7.218,111.938 7.218,299.695 305.218,299.695 305.218,165.434 272.714,165.434  " fill="#555555"/>
	<polygon points="255.084,5.523 204.679,12.826 153.214,81.729 203.62,74.426  " fill="#555555"/>
	<polygon points="148.694,20.937 101.259,27.809 49.794,96.712 97.23,89.839  " fill="#555555"/>
	<polygon points="297.26,15.898 259.603,66.315 303.64,59.935  " fill="#555555"/>
	<polygon points="45.274,35.92 0,42.479 5.989,83.817 6.559,87.753 19.858,69.949  " fill="#555555"/>
</g>
<g>
</g>
<g>
</g>
<g>
</g>
<g>
</g>
<g>
</g>
<g>
</g>
<g>
</g>
<g>
</g>
<g>
</g>
<g>
</g>
<g>
</g>
<g>
</g>
<g>
</g>
<g>
</g>
<g>
</g>
</svg>
