<!-- Created with Inkscape (http://www.inkscape.org/) -->
<svg xmlns:rdf="http://www.w3.org/1999/02/22-rdf-syntax-ns#" xmlns="http://www.w3.org/2000/svg" version="1.1" xmlns:cc="http://creativecommons.org/ns#" xmlns:dc="http://purl.org/dc/elements/1.1/" viewBox="0 0 863 168">
	<metadata>
		<rdf:RDF>
			<cc:Work rdf:about="">
				<dc:format>image/svg+xml</dc:format>
				<dc:type rdf:resource="http://purl.org/dc/dcmitype/StillImage"/>
				<dc:title/>
			</cc:Work>
		</rdf:RDF>
	</metadata>
	<path fill="#000" d="M514.97,8.9688c-6.05,0-11.24,2.1292-15.59,6.3432-4.36,4.216-6.54,9.252-6.54,15.126,0,5.853,2.18,10.878,6.54,15.093,4.35,4.215,9.54,6.344,15.59,6.344,6.07,0,11.3-2.129,15.65-6.344,4.36-4.215,6.54-9.24,6.54-15.093,0-5.874-2.18-10.91-6.54-15.126-4.35-4.214-9.58-6.3432-15.65-6.3432zm-363.94,0.0937l-19.34,42.282h1.69,1.68l6.5-14.5h20.44l6.59,14.5h1.79,1.78l-19.35-42.282h-0.9-0.88zm128.41,0l-19.32,42.282h1.66,1.69l6.5-14.5h20.44l6.59,14.5h1.78,1.78l-19.31-42.282h-0.91-0.9zm-266.88,0.4375v41.844h1.626,13.281c6.792,0,12.24-1.915,16.375-5.75,4.135-3.836,6.218-8.884,6.218-15.156,0-6.293-2.027-11.352-6.062-15.188-4.015-3.835-9.325-5.75-15.938-5.75h-13.874-1.626zm51.126,0v41.844h23.312v-1.344-1.344h-20.062v-17h18.906v-1.344-1.343h-18.906v-16.781h19.343v-1.344-1.344h-22.593zm35.624,0v41.844h1.628,1.62v-19.094h7.35c4.57,0,8.14-0.971,10.71-2.969,2.6-2.017,3.88-4.819,3.88-8.375,0-3.575-1.28-6.357-3.88-8.375-2.57-2.017-6.14-3.031-10.71-3.031h-8.97-1.628zm83.628,0v41.844h1.62,1.63v-20h6.62c2.26,0,4.04,0.478,5.31,1.437,1.3,0.939,2.92,2.935,4.88,6.031l7.94,12.532h1.84,1.88l-7.94-12.532c-1.62-2.536-3.27-4.679-4.91-6.437-0.86-0.919-1.6-1.58-2.22-2,1.62-0.479,3.03-1.152,4.19-2.031,2.54-1.918,3.81-4.573,3.81-7.969,0-3.416-1.27-6.082-3.81-8-2.52-1.918-6.02-2.875-10.5-2.875h-8.72-1.62zm36.28,0v1.344,1.344h15.72v39.156h1.59,1.63v-39.156h15.75v-1.344-1.344h-34.69zm92.03,0v41.844h1.63,1.59v-36.938l15.87,19.375h0.13,0.09l15.88-19.875v37.438h1.59,1.63v-41.844h-1.6-1.56l-15.84,19.906-16.25-19.906h-1.6-1.56zm53.78,0v41.844h23.31v-1.344-1.344h-20.09v-17h18.91v-1.344-1.343h-18.91v-16.781h19.37v-1.344-1.344h-22.59zm35.59,0v41.844h1.63,1.63v-36.438l32.46,36.875h1.04,1v-42.281h-1.63-1.63v36.031l-31.71-36.031h-1.41-1.38zm48.44,0v1.344,1.344h15.72v39.156h1.63,1.59v-39.156h15.75v-1.344-1.344h-34.69zm124.41,0v41.844h1.62,13.29c6.79,0,12.23-1.915,16.37-5.75,4.14-3.836,6.22-8.884,6.22-15.156,0-6.293-2.03-11.352-6.06-15.188-4.02-3.835-9.33-5.75-15.94-5.75h-13.88-1.62zm51.15,0v41.844h23.32v-1.344-1.344h-20.1v-17h18.91v-1.344-1.343h-18.91v-16.781h19.38v-1.344-1.344h-22.6zm-109.65,2.375c5.15,0,9.54,1.822,13.15,5.437,3.64,3.616,5.47,7.992,5.47,13.126,0,5.113-1.83,9.478-5.47,13.093-3.61,3.616-8,5.438-13.15,5.438-5.14,0-9.49-1.822-13.13-5.438-3.61-3.615-5.43-7.98-5.43-13.093,0-5.134,1.82-9.51,5.43-13.126,3.64-3.615,7.99-5.437,13.13-5.437zm-499.16,0.531h12.25c5.594,0,10.039,1.63,13.376,4.906,3.356,3.277,5.031,7.652,5.031,13.126,0,5.453-1.701,9.817-5.157,13.093-3.455,3.276-8.07,4.907-13.843,4.907h-11.657v-36.032zm86.748,0h8.25c3.22,0,5.71,0.752,7.47,2.25,1.78,1.479,2.66,3.553,2.66,6.25,0,2.677-0.88,4.741-2.66,6.219-1.76,1.478-4.25,2.219-7.47,2.219h-8.25v-16.938zm83.63,0h7.12c3.4,0,6.02,0.718,7.88,2.156,1.88,1.419,2.81,3.404,2.81,6,0,2.577-0.93,4.593-2.81,6.032-1.86,1.418-4.48,2.125-7.88,2.125h-7.12v-16.313zm390.53,0h12.25c5.59,0,10.07,1.63,13.41,4.906,3.35,3.277,5.03,7.652,5.03,13.126,0,5.453-1.74,9.817-5.19,13.093-3.46,3.276-8.07,4.907-13.84,4.907h-11.66v-36.032zm-424.94,1.906l9,19.844h-17.97l8.97-19.844zm128.41,0l9.03,19.844h-18l8.97-19.844z"/>
	<path fill="#000" d="m355.34,83.281c-8.3628,0.000074-16.384,4.414-24.062,13.25-5.0493-8.7308-12.171-13.094-21.375-13.094-6.9953,0.000074-14.158,3.658-21.469,10.969v-9.5312h-14.344v72.562h14.344v-52.688c3.2083-3.4713,6.0592-5.8824,8.5312-7.25,2.5246-1.3674,5.2832-2.0624,8.2812-2.0625,5.3647,0.000062,9.1248,1.6042,11.281,4.8125,2.1564,3.1558,3.2499,8.7654,3.25,16.812v40.375h14.438v-52.688c5.1543-5.9959,10.682-8.9999,16.625-9,4.6284,0.000062,8.1842,1.6042,10.656,4.8125,2.4719,3.2084,3.7186,7.8265,3.7188,13.875v43h14.344v-42.844c-0.00012-10.572-2.268-18.408-6.8438-23.562-4.5234-5.1543-10.327-7.7499-17.375-7.75zm-316.96,0.157c-10.73,0.000074-19.363,3.5048-25.938,10.5-6.5745,6.9953-9.875,16.212-9.875,27.625-0.0000062,11.308,3.3615,20.33,10.094,27.062,6.7848,6.7323,15.858,10.094,27.219,10.094,6.89,0,13.951-1.3489,21.156-4.0312v-14.188c-7.1531,3.2084-13.509,4.8125-19.031,4.8125-7.6264,0.00001-13.696-2.197-18.219-6.5625-4.4707-4.3654-6.7188-10.24-6.7188-17.656-0.000021-7.0478,2.0949-12.852,6.25-17.375,4.155-4.5758,9.4682-6.8749,15.938-6.875,6.2063,0.000061,12.929,2.3404,20.188,6.9688v-15.312c-4.366-1.924-8.034-3.232-11.032-3.916-2.945-0.736-6.297-1.124-10.031-1.124zm112.47,0c-8.1524,0.000074-15.458,3.5559-21.875,10.656v-9.2188h-14.656v72.562h14.656v-51.812c4.7336-6.7848,10.496-10.187,17.281-10.188,5.3121,0.000062,9.1133,1.6042,11.375,4.8125,2.2616,3.1558,3.3749,8.4278,3.375,15.844v41.344h14.375v-41.5c-0.00007-8.8361-1.0426-15.263-3.0938-19.312-1.9987-4.1024-4.9205-7.3107-8.8125-9.625-3.8922-2.3667-8.1018-3.5624-12.625-3.5625zm75.781,0c-9.9932,0.000074-18.116,3.4949-24.375,10.438-6.2589,6.8901-9.4063,15.83-9.4062,26.875-0.00001,7.3635,1.4921,13.872,4.4375,19.5,2.998,5.5752,6.9622,10.03,11.906,13.344,4.944,3.3135,11.412,4.9688,19.406,4.9688,5.8381,0,10.906-0.64395,15.219-1.9062,4.3654-1.2623,8.7694-3.3671,13.188-6.3125v-14.031c-7.9946,5.8908-16.72,8.8438-26.188,8.8438-6.7849,0.00001-12.343-2.0538-16.656-6.1562-4.2603-4.1025-6.5694-9.6511-6.9375-16.594h51.031v-1.8125c-0.00007-11.308-2.8609-20.33-8.5938-27.062-5.73-6.729-13.4-10.09-23.03-10.09zm193.31,0c-10.467,0.000074-18.487,3.3006-24.062,9.875v15.688c7.416-8.0997,15.038-12.156,22.875-12.156,8.7309,0.000061,13.094,4.3941,13.094,13.125v3.8438l-18.375,6.3125c-6.0486,2.1039-10.718,4.9647-14.031,8.5938-3.261,3.5766-4.9062,7.6742-4.9062,12.25,0,5.0492,1.6964,9.2589,5.0625,12.625,3.3661,3.3135,7.5758,4.9688,12.625,4.9688,6.89,0,13.368-2.3914,19.469-7.125,1.1045,4.8388,4.7525,7.2812,10.906,7.2812,2.1564,0,4.2101-0.39856,6.1562-1.1875,1.9986-0.73634,4.614-2.1462,7.875-4.25v-8.7812c-3.6818,2.5772-6.3894,3.875-8.125,3.875-1.6831,0.00001-2.5313-1.2467-2.5312-3.7188v-30.844c-0.00006-6.1011-0.16313-10.219-0.53125-12.375-0.31563-2.209-1.1128-4.406-2.375-6.5625-1.2624-2.209-2.7034-3.9663-4.2812-5.2812-4.7337-4.1024-11.007-6.1562-18.844-6.1562zm-341.34,1.4375,0,72.562,14.344,0,0-72.562-14.344,0zm148.03,11.03c5.1544,0.000062,9.2619,1.5532,12.312,4.6562,3.0505,3.1032,4.7568,7.5171,5.125,13.25h-36.531c0.9993-5.7329,3.114-10.147,6.375-13.25,3.3135-3.1031,7.5643-4.6562,12.719-4.6562zm205.22,25.656,0,21.531c-3.8921,3.7343-8.1117,5.5938-12.688,5.5938-3.0506,0.00001-5.554-0.95029-7.5-2.8438-1.8935-1.8934-2.8438-4.3458-2.8438-7.3438-0.00002-2.9454,1.0013-5.3664,3-7.3125,2.0512-1.9986,5.5148-3.9914,10.406-5.9375l9.625-3.6875z"/>
	<path fill="#000" d="m600.16,58-6.0625,13.5,8.8438,0,10.156-13.5-12.938,0zm74.375,0,0,30.688c-5.69-2.052-10.95-3.063-15.79-3.063-10.414,0.000074-18.986,3.4225-25.719,10.312-6.6797,6.8901-10,15.667-10,26.344-0.00001,11.413,3.1671,20.528,9.5312,27.312,6.4167,6.7849,14.989,10.188,25.719,10.188h30.688v-101.78h-14.438zm65.156,27.781c-9.9932,0.000074-18.116,3.4637-24.375,10.406-6.2589,6.8901-9.4063,15.861-9.4062,26.906-0.00001,7.3635,1.4921,13.841,4.4375,19.469,2.998,5.5752,6.9622,10.03,11.906,13.344,4.944,3.3135,11.412,4.9688,19.406,4.9688,5.8381,0,10.906-0.64395,15.219-1.9062,4.3654-1.2623,8.7694-3.3671,13.188-6.3125v-14.031c-7.9946,5.8908-16.72,8.8438-26.188,8.8438-6.7849,0.00001-12.343-2.0538-16.656-6.1562-4.2603-4.1025-6.5694-9.6198-6.9375-16.562h51.031v-1.8125c-0.00007-11.308-2.8609-20.33-8.5938-27.062-5.74-6.725-13.42-10.087-23.04-10.087zm82.812,1.25c-11.15,0.000073-20.428,3.5559-27.844,10.656-7.3634,7.0479-11.063,15.876-11.062,26.5-0.00001,10.519,3.6579,19.296,10.969,26.344,7.3108,6.9953,16.425,10.5,27.312,10.5,11.255,0,20.584-3.4537,28-10.344,7.4159-6.9426,11.125-15.627,11.125-26.094-0.02-10.79-3.68-19.75-10.99-26.85-7.31-7.153-16.48-10.719-27.53-10.719zm-314.12,0.15625,32.812,73.844,4.8125,0,32.031-73.844-15.562,0-18.844,44.656-19.562-44.656-15.688,0zm81.688,0,0,72.594,14.375,0,0-72.594-14.375,0zm70.906,10.875c4.5758,0.00006,9.0918,1.1447,13.562,3.4062v46h-11.125c-6.4167,0.00001-10.841-0.4397-13.312-1.2812-2.472-0.84152-4.8222-2.4556-7.0312-4.875-3.6817-4.0499-5.5313-9.8126-5.5312-17.281-0.00002-7.9419,2.1048-14.256,6.3125-18.938,4.2602-4.681,9.9719-7.0312,17.125-7.0312zm78.719,0.15625c5.1544,0.00006,9.2619,1.5532,12.312,4.6562,3.0505,3.1032,4.7568,7.5484,5.125,13.281h-36.531c0.9993-5.7329,3.114-10.178,6.375-13.281,3.3135-3.1031,7.5643-4.6562,12.719-4.6562zm82.031,1.75c7.1004,0.00006,12.975,2.2581,17.656,6.7812,4.681,4.5233,7.0312,10.235,7.0312,17.125-0.00007,6.9427-2.2581,12.654-6.7812,17.125-4.4707,4.4181-10.233,6.625-17.281,6.625-7.1005,0.00001-12.914-2.197-17.438-6.5625-4.5233-4.418-6.7813-10.089-6.7812-17.031-0.00002-6.9952,2.2069-12.758,6.625-17.281,4.418-4.5232,10.079-6.7812,16.969-6.7812z"/>
	<path fill="#000" d="M489.19,108.19c-4.86,0-8.84,1.8-11.94,5.4-3.1,3.61-4.63,8.22-4.63,13.88,0,5.63,1.77,10.24,5.35,13.84,3.6,3.58,8.24,5.38,13.87,5.38,2.62,0,5.04-0.43,7.28-1.25,2.27-0.86,4.5-2.19,6.69-4v-4.06c-2.21,1.78-4.44,3.07-6.65,3.9-2.22,0.83-4.6,1.25-7.16,1.25-4.24,0-7.85-1.47-10.84-4.44-2.99-2.99-4.5-6.59-4.5-10.81v-0.84h29.09c-0.13-5.71-1.56-10.13-4.28-13.22-2.88-3.36-6.97-5.03-12.28-5.03zm0,3.81c3.89,0,6.97,1.38,9.22,4.12,1.57,1.9,2.57,4.28,3,7.19h-24.38c0.59-2.59,1.68-4.87,3.28-6.84,2.46-2.99,5.41-4.47,8.88-4.47z"/>
</svg>
