<?xml version="1.0" encoding="UTF-8" standalone="no"?>
<!-- Created with Inkscape (http://www.inkscape.org/) -->

<svg
   xmlns:dc="http://purl.org/dc/elements/1.1/"
   xmlns:cc="http://creativecommons.org/ns#"
   xmlns:rdf="http://www.w3.org/1999/02/22-rdf-syntax-ns#"
   xmlns:svg="http://www.w3.org/2000/svg"
   xmlns="http://www.w3.org/2000/svg"
   xmlns:sodipodi="http://sodipodi.sourceforge.net/DTD/sodipodi-0.dtd"
   xmlns:inkscape="http://www.inkscape.org/namespaces/inkscape"
   id="svg2985"
   version="1.1"
   inkscape:version="0.48.5 r10040"
   width="863"
   height="168"
   sodipodi:docname="logo2.svg">
  <metadata
     id="metadata2991">
    <rdf:RDF>
      <cc:Work
         rdf:about="">
        <dc:format>image/svg+xml</dc:format>
        <dc:type
           rdf:resource="http://purl.org/dc/dcmitype/StillImage" />
        <dc:title></dc:title>
      </cc:Work>
    </rdf:RDF>
  </metadata>
  <defs
     id="defs2989" />
  <sodipodi:namedview
     pagecolor="#ffffff"
     bordercolor="#666666"
     borderopacity="1"
     objecttolerance="10"
     gridtolerance="10"
     guidetolerance="10"
     inkscape:pageopacity="0"
     inkscape:pageshadow="2"
     inkscape:window-width="1366"
     inkscape:window-height="708"
     id="namedview2987"
     showgrid="false"
     inkscape:zoom="0.96356614"
     inkscape:cx="398.52158"
     inkscape:cy="4.7642901"
     inkscape:window-x="0"
     inkscape:window-y="27"
     inkscape:window-maximized="1"
     inkscape:current-layer="svg2985" />
  <path
     style="font-size:51.13961029px;font-style:normal;font-weight:normal;line-height:125%;letter-spacing:0px;word-spacing:0px;fill:#000000;fill-opacity:1;stroke:none;font-family:Sans"
     d="M 514.96875 8.96875 C 508.91588 8.9687924 503.72984 11.097518 499.375 15.3125 C 495.02014 19.527555 492.84375 24.564462 492.84375 30.4375 C 492.84375 36.290603 495.02014 41.316237 499.375 45.53125 C 503.72984 49.746274 508.91588 51.874999 514.96875 51.875 C 521.04155 51.874999 526.27011 49.746274 530.625 45.53125 C 534.97981 41.316237 537.1562 36.290603 537.15625 30.4375 C 537.1562 24.564462 534.97981 19.527555 530.625 15.3125 C 526.27011 11.097518 521.04155 8.9687924 514.96875 8.96875 z M 151.03125 9.0625 L 131.6875 51.34375 L 133.375 51.34375 L 135.0625 51.34375 L 141.5625 36.84375 L 162 36.84375 L 168.59375 51.34375 L 170.375 51.34375 L 172.15625 51.34375 L 152.8125 9.0625 L 151.90625 9.0625 L 151.03125 9.0625 z M 279.4375 9.0625 L 260.125 51.34375 L 261.78125 51.34375 L 263.46875 51.34375 L 269.96875 36.84375 L 290.40625 36.84375 L 297 51.34375 L 298.78125 51.34375 L 300.5625 51.34375 L 281.25 9.0625 L 280.34375 9.0625 L 279.4375 9.0625 z M 12.5625 9.5 L 12.5625 51.34375 L 14.1875 51.34375 L 27.46875 51.34375 C 34.260703 51.34375 39.708601 49.429223 43.84375 45.59375 C 47.978827 41.758289 50.062458 36.710108 50.0625 30.4375 C 50.062458 24.144958 48.035195 19.085503 44 15.25 C 39.984709 11.414569 34.674665 9.5000419 28.0625 9.5 L 14.1875 9.5 L 12.5625 9.5 z M 63.6875 9.5 L 63.6875 51.34375 L 87 51.34375 L 87 50 L 87 48.65625 L 66.9375 48.65625 L 66.9375 31.65625 L 85.84375 31.65625 L 85.84375 30.3125 L 85.84375 28.96875 L 66.9375 28.96875 L 66.9375 12.1875 L 86.28125 12.1875 L 86.28125 10.84375 L 86.28125 9.5 L 63.6875 9.5 z M 99.3125 9.5 L 99.3125 51.34375 L 100.9375 51.34375 L 102.5625 51.34375 L 102.5625 32.25 L 109.90625 32.25 C 114.48083 32.250019 118.04802 31.278911 120.625 29.28125 C 123.2219 27.263657 124.49997 24.462078 124.5 20.90625 C 124.49997 17.330506 123.2219 14.548904 120.625 12.53125 C 118.04802 10.513673 114.48083 9.5000419 109.90625 9.5 L 100.9375 9.5 L 99.3125 9.5 z M 182.9375 9.5 L 182.9375 51.34375 L 184.5625 51.34375 L 186.1875 51.34375 L 186.1875 31.34375 L 192.8125 31.34375 C 195.06982 31.34377 196.84649 31.822402 198.125 32.78125 C 199.42345 33.720159 201.04229 35.716172 203 38.8125 L 210.9375 51.34375 L 212.78125 51.34375 L 214.65625 51.34375 L 206.71875 38.8125 C 205.10063 36.275511 203.45054 34.132941 201.8125 32.375 C 200.95349 31.456105 200.213 30.794525 199.59375 30.375 C 201.21182 29.895588 202.62259 29.222734 203.78125 28.34375 C 206.31823 26.426039 207.59372 23.771017 207.59375 20.375 C 207.59372 16.959068 206.31823 14.292773 203.78125 12.375 C 201.2642 10.457305 197.75595 9.5000419 193.28125 9.5 L 184.5625 9.5 L 182.9375 9.5 z M 219.21875 9.5 L 219.21875 10.84375 L 219.21875 12.1875 L 234.9375 12.1875 L 234.9375 51.34375 L 236.53125 51.34375 L 238.15625 51.34375 L 238.15625 12.1875 L 253.90625 12.1875 L 253.90625 10.84375 L 253.90625 9.5 L 219.21875 9.5 z M 311.25 9.5 L 311.25 51.34375 L 312.875 51.34375 L 314.46875 51.34375 L 314.46875 14.40625 L 330.34375 33.78125 L 330.46875 33.78125 L 330.5625 33.78125 L 346.4375 13.90625 L 346.4375 51.34375 L 348.03125 51.34375 L 349.65625 51.34375 L 349.65625 9.5 L 348.0625 9.5 L 346.5 9.5 L 330.65625 29.40625 L 314.40625 9.5 L 312.8125 9.5 L 311.25 9.5 z M 365.03125 9.5 L 365.03125 51.34375 L 388.34375 51.34375 L 388.34375 50 L 388.34375 48.65625 L 368.25 48.65625 L 368.25 31.65625 L 387.15625 31.65625 L 387.15625 30.3125 L 387.15625 28.96875 L 368.25 28.96875 L 368.25 12.1875 L 387.625 12.1875 L 387.625 10.84375 L 387.625 9.5 L 365.03125 9.5 z M 400.625 9.5 L 400.625 51.34375 L 402.25 51.34375 L 403.875 51.34375 L 403.875 14.90625 L 436.34375 51.78125 L 437.375 51.78125 L 438.375 51.78125 L 438.375 9.5 L 436.75 9.5 L 435.125 9.5 L 435.125 45.53125 L 403.40625 9.5 L 402 9.5 L 400.625 9.5 z M 449.0625 9.5 L 449.0625 10.84375 L 449.0625 12.1875 L 464.78125 12.1875 L 464.78125 51.34375 L 466.40625 51.34375 L 468 51.34375 L 468 12.1875 L 483.75 12.1875 L 483.75 10.84375 L 483.75 9.5 L 449.0625 9.5 z M 573.46875 9.5 L 573.46875 51.34375 L 575.09375 51.34375 L 588.375 51.34375 C 595.16695 51.34375 600.61485 49.429223 604.75 45.59375 C 608.88508 41.758289 610.96871 36.710108 610.96875 30.4375 C 610.96871 24.144958 608.94144 19.085503 604.90625 15.25 C 600.89096 11.414569 595.58092 9.5000419 588.96875 9.5 L 575.09375 9.5 L 573.46875 9.5 z M 624.625 9.5 L 624.625 51.34375 L 647.9375 51.34375 L 647.9375 50 L 647.9375 48.65625 L 627.84375 48.65625 L 627.84375 31.65625 L 646.75 31.65625 L 646.75 30.3125 L 646.75 28.96875 L 627.84375 28.96875 L 627.84375 12.1875 L 647.21875 12.1875 L 647.21875 10.84375 L 647.21875 9.5 L 624.625 9.5 z M 514.96875 11.875 C 520.12263 11.875039 524.50923 13.696807 528.125 17.3125 C 531.76066 20.928261 533.59371 25.303588 533.59375 30.4375 C 533.59371 35.551477 531.76066 39.915531 528.125 43.53125 C 524.50923 47.146985 520.12263 48.968752 514.96875 48.96875 C 509.83479 48.968752 505.47944 47.146985 501.84375 43.53125 C 498.22801 39.915531 496.40624 35.551477 496.40625 30.4375 C 496.40624 25.303588 498.22801 20.928261 501.84375 17.3125 C 505.47944 13.696807 509.83479 11.875039 514.96875 11.875 z M 15.8125 12.40625 L 28.0625 12.40625 C 33.655869 12.406289 38.101409 14.036406 41.4375 17.3125 C 44.7935 20.588662 46.468711 24.96399 46.46875 30.4375 C 46.468711 35.891076 44.768382 40.25513 41.3125 43.53125 C 37.856551 46.807386 33.241907 48.437503 27.46875 48.4375 L 15.8125 48.4375 L 15.8125 12.40625 z M 102.5625 12.40625 L 110.8125 12.40625 C 114.02868 12.406289 116.5233 13.158057 118.28125 14.65625 C 120.05913 16.13454 120.93747 18.209468 120.9375 20.90625 C 120.93747 23.583117 120.05913 25.646771 118.28125 27.125 C 116.5233 28.603277 114.02868 29.343772 110.8125 29.34375 L 102.5625 29.34375 L 102.5625 12.40625 z M 186.1875 12.40625 L 193.3125 12.40625 C 196.70847 12.406289 199.32967 13.124237 201.1875 14.5625 C 203.06526 15.980861 203.99997 17.9656 204 20.5625 C 203.99997 23.139485 203.06526 25.155475 201.1875 26.59375 C 199.32967 28.012099 196.70847 28.718773 193.3125 28.71875 L 186.1875 28.71875 L 186.1875 12.40625 z M 576.71875 12.40625 L 588.96875 12.40625 C 594.56212 12.406289 599.03891 14.036406 602.375 17.3125 C 605.731 20.588662 607.40621 24.96399 607.40625 30.4375 C 607.40621 35.891076 605.67463 40.25513 602.21875 43.53125 C 598.7628 46.807386 594.14816 48.437503 588.375 48.4375 L 576.71875 48.4375 L 576.71875 12.40625 z M 151.78125 14.3125 L 160.78125 34.15625 L 142.8125 34.15625 L 151.78125 14.3125 z M 280.1875 14.3125 L 289.21875 34.15625 L 271.21875 34.15625 L 280.1875 14.3125 z "
     id="text2995" />
  <path
     style="fill:#000000;fill-opacity:1;stroke:none"
     d="m 355.34375,83.28125 c -8.36283,7.4e-5 -16.38357,4.413958 -24.0625,13.25 -5.04927,-8.73085 -12.17077,-13.093676 -21.375,-13.09375 -6.99529,7.4e-5 -14.15795,3.65799 -21.46875,10.96875 l 0,-9.53125 -14.34375,0 0,72.5625 14.34375,0 0,-52.6875 c 3.20832,-3.47127 6.05921,-5.88245 8.53125,-7.25 2.52457,-1.367432 5.28325,-2.062438 8.28125,-2.0625 5.36474,6.2e-5 9.12477,1.60421 11.28125,4.8125 2.15638,3.15581 3.24994,8.76538 3.25,16.8125 l 0,40.375 14.4375,0 0,-52.6875 c 5.15432,-5.99587 10.68158,-8.999938 16.625,-9 4.62835,6.2e-5 8.18415,1.60421 10.65625,4.8125 2.47191,3.2084 3.71865,7.82652 3.71875,13.875 l 0,43 14.34375,0 0,-42.84375 c -1.2e-4,-10.57172 -2.26802,-18.40804 -6.84375,-23.5625 -4.52335,-5.154327 -10.32725,-7.749926 -17.375,-7.75 z M 38.375,83.4375 c -10.729596,7.4e-5 -19.363035,3.504815 -25.9375,10.5 -6.5744974,6.99531 -9.8750062,16.21174 -9.875,27.625 -6.2e-6,11.30814 3.3614648,20.33024 10.09375,27.0625 6.784849,6.73228 15.858003,10.09375 27.21875,10.09375 6.890013,0 13.950554,-1.34886 21.15625,-4.03125 l 0,-14.1875 c -7.1531,3.20836 -13.508731,4.81251 -19.03125,4.8125 -7.626444,1e-5 -13.695534,-2.19703 -18.21875,-6.5625 -4.470675,-4.36544 -6.718771,-10.2402 -6.71875,-17.65625 -2.1e-5,-7.04781 2.094901,-12.8517 6.25,-17.375 4.155045,-4.57578 9.468168,-6.874939 15.9375,-6.875 6.206268,6.1e-5 12.92921,2.34037 20.1875,6.96875 l 0,-15.3125 C 55.071981,86.554022 51.404162,85.246319 48.40625,84.5625 45.46083,83.826231 42.109263,83.437574 38.375,83.4375 z m 112.46875,0 c -8.1524,7.4e-5 -15.45833,3.555873 -21.875,10.65625 l 0,-9.21875 -14.65625,0 0,72.5625 14.65625,0 0,-51.8125 c 4.7336,-6.78481 10.49634,-10.187438 17.28125,-10.1875 5.31214,6.2e-5 9.11333,1.60421 11.375,4.8125 2.26157,3.15581 3.37494,8.42778 3.375,15.84375 l 0,41.34375 14.375,0 0,-41.5 c -7e-5,-8.83606 -1.04258,-15.26256 -3.09375,-19.3125 -1.99871,-4.102416 -4.92047,-7.310712 -8.8125,-9.625 -3.89215,-2.366743 -8.1018,-3.562426 -12.625,-3.5625 z m 75.78125,0 c -9.99325,7.4e-5 -18.11611,3.494911 -24.375,10.4375 -6.25892,6.89012 -9.40626,15.82991 -9.40625,26.875 -1e-5,7.36346 1.49212,13.87226 4.4375,19.5 2.99795,5.57518 6.96222,10.03022 11.90625,13.34375 4.94399,3.31354 11.41164,4.96875 19.40625,4.96875 5.8381,0 10.90583,-0.64395 15.21875,-1.90625 4.3654,-1.2623 8.76938,-3.36713 13.1875,-6.3125 l 0,-14.03125 c -7.99464,5.89076 -16.72029,8.84376 -26.1875,8.84375 -6.78491,1e-5 -12.34342,-2.05376 -16.65625,-6.15625 -4.26029,-4.10246 -6.56935,-9.65106 -6.9375,-16.59375 l 51.03125,0 0,-1.8125 c -7e-5,-11.30807 -2.86087,-20.33017 -8.59375,-27.0625 C 243.92324,86.799045 236.25,83.437574 226.625,83.4375 z m 193.3125,0 c -10.4666,7.4e-5 -18.48735,3.300583 -24.0625,9.875 l 0,15.6875 c 7.41601,-8.09971 15.03819,-12.156189 22.875,-12.15625 8.73088,6.1e-5 13.09371,4.39414 13.09375,13.125 l 0,3.84375 -18.375,6.3125 c -6.04855,2.10387 -10.71772,4.96467 -14.03125,8.59375 -3.26095,3.57655 -4.90625,7.67418 -4.90625,12.25 0,5.04922 1.69636,9.25887 5.0625,12.625 3.36613,3.31354 7.57578,4.96875 12.625,4.96875 6.89003,0 13.36759,-2.39137 19.46875,-7.125 1.10447,4.83882 4.75248,7.28125 10.90625,7.28125 2.15638,0 4.21014,-0.39856 6.15625,-1.1875 1.99858,-0.73634 4.61399,-2.14616 7.875,-4.25 l 0,-8.78125 c -3.68178,2.57721 -6.3894,3.87501 -8.125,3.875 -1.68313,1e-5 -2.53131,-1.24673 -2.53125,-3.71875 l 0,-30.84375 c -6e-5,-6.10108 -0.16313,-10.21851 -0.53125,-12.375 -0.31563,-2.20897 -1.11275,-4.406008 -2.375,-6.5625 -1.26235,-2.208963 -2.70342,-3.966286 -4.28125,-5.28125 -4.73368,-4.102409 -11.007,-6.156176 -18.84375,-6.15625 z m -341.34375,1.4375 0,72.5625 14.34375,0 0,-72.5625 -14.34375,0 z M 226.625,95.90625 c 5.15435,6.2e-5 9.26189,1.553152 12.3125,4.65625 3.05051,3.10321 4.75677,7.5171 5.125,13.25 l -36.53125,0 c 0.9993,-5.7329 3.11403,-10.14679 6.375,-13.25 3.31351,-3.103098 7.56432,-4.656188 12.71875,-4.65625 z m 205.21875,25.65625 0,21.53125 c -3.89213,3.73432 -8.11169,5.59376 -12.6875,5.59375 -3.05059,1e-5 -5.55397,-0.95029 -7.5,-2.84375 -1.89347,-1.89344 -2.84377,-4.34577 -2.84375,-7.34375 -2e-5,-2.94535 1.00134,-5.36643 3,-7.3125 2.05122,-1.99862 5.5148,-3.99142 10.40625,-5.9375 l 9.625,-3.6875 z"
     id="rect3051"
     inkscape:connector-curvature="0" />
  <path
     style="fill:#000000;fill-opacity:1;stroke:none"
     d="m 600.15625,58 -6.0625,13.5 8.84375,0 10.15625,-13.5 -12.9375,0 z m 74.375,0 0,30.6875 C 668.85084,86.636333 663.58878,85.625074 658.75,85.625 c -10.41402,7.4e-5 -18.9865,3.422507 -25.71875,10.3125 -6.67969,6.89012 -10.00001,15.66683 -10,26.34375 -10e-6,11.41334 3.16714,20.52765 9.53125,27.3125 6.41668,6.78487 14.98915,10.1875 25.71875,10.1875 l 30.6875,0 0,-101.78125 -14.4375,0 z m 65.15625,27.78125 c -9.99325,7.4e-5 -18.11611,3.463661 -24.375,10.40625 -6.25892,6.89012 -9.40626,15.86116 -9.40625,26.90625 -10e-6,7.36346 1.49212,13.84101 4.4375,19.46875 2.99795,5.57518 6.96222,10.03022 11.90625,13.34375 4.94399,3.31354 11.41164,4.96875 19.40625,4.96875 5.8381,0 10.90583,-0.64395 15.21875,-1.90625 4.3654,-1.2623 8.76938,-3.36713 13.1875,-6.3125 l 0,-14.03125 c -7.99464,5.89076 -16.72029,8.84376 -26.1875,8.84375 -6.78491,1e-5 -12.34342,-2.05376 -16.65625,-6.15625 -4.26029,-4.10246 -6.56935,-9.61981 -6.9375,-16.5625 l 51.03125,0 0,-1.8125 c -7e-5,-11.30807 -2.86087,-20.33017 -8.59375,-27.0625 C 756.98574,89.142795 749.3125,85.781324 739.6875,85.78125 z m 82.8125,1.25 c -11.15037,7.3e-5 -20.42775,3.555872 -27.84375,10.65625 -7.36344,7.04791 -11.06251,15.87567 -11.0625,26.5 -10e-6,10.51921 3.65791,19.29592 10.96875,26.34375 7.31081,6.99526 16.42511,10.5 27.3125,10.5 11.25547,0 20.58391,-3.45368 28,-10.34375 7.41594,-6.94264 11.12492,-15.62714 11.125,-26.09375 C 860.99992,113.81164 857.342,104.8505 850.03125,97.75 842.72035,90.597026 833.54508,87.031323 822.5,87.03125 z m -314.125,0.15625 32.8125,73.84375 4.8125,0 32.03125,-73.84375 -15.5625,0 -18.84375,44.65625 -19.5625,-44.65625 -15.6875,0 z m 81.6875,0 0,72.59375 14.375,0 0,-72.59375 -14.375,0 z m 70.90625,10.875 c 4.57579,6e-5 9.09179,1.14469 13.5625,3.40625 l 0,46 -11.125,0 c -6.41674,1e-5 -10.84053,-0.4397 -13.3125,-1.28125 -2.47204,-0.84152 -4.82225,-2.45557 -7.03125,-4.875 -3.68174,-4.04986 -5.53127,-9.8126 -5.53125,-17.28125 -2e-5,-7.94194 2.1048,-14.25641 6.3125,-18.9375 4.26024,-4.68098 9.97192,-7.03119 17.125,-7.03125 z m 78.71875,0.15625 c 5.15435,6e-5 9.26189,1.55315 12.3125,4.65625 3.05051,3.10321 4.75677,7.54835 5.125,13.28125 l -36.53125,0 c 0.9993,-5.7329 3.11403,-10.17804 6.375,-13.28125 3.31351,-3.1031 7.56432,-4.65619 12.71875,-4.65625 z m 82.03125,1.75 c 7.1004,6e-5 12.97516,2.25806 17.65625,6.78125 4.68097,4.5233 7.03118,10.23498 7.03125,17.125 -7e-5,6.94269 -2.25807,12.65437 -6.78125,17.125 -4.47071,4.41807 -10.23345,6.62501 -17.28125,6.625 -7.10048,1e-5 -12.91428,-2.19703 -17.4375,-6.5625 -4.52327,-4.41803 -6.78127,-10.08856 -6.78125,-17.03125 -2e-5,-6.99521 2.20692,-12.75795 6.625,-17.28125 4.41802,-4.52319 10.07865,-6.78119 16.96875,-6.78125 z"
     id="rect3201"
     inkscape:connector-curvature="0" />
  <path
     style="font-size:81.97850037px;font-style:normal;font-weight:normal;line-height:125%;letter-spacing:0px;word-spacing:0px;fill:#000000;fill-opacity:1;stroke:none;font-family:Sans"
     d="M 489.1875 108.1875 C 484.33069 108.18754 480.34553 109.99122 477.25 113.59375 C 474.15445 117.19635 472.625 121.8114 472.625 127.46875 C 472.625 133.09945 474.39286 137.70994 477.96875 141.3125 C 481.57131 144.88839 486.21305 146.6875 491.84375 146.6875 C 494.45892 146.6875 496.88337 146.26476 499.125 145.4375 C 501.39325 144.58356 503.62424 143.25213 505.8125 141.4375 L 505.8125 137.375 C 503.59755 139.16295 501.37113 140.454 499.15625 141.28125 C 496.94131 142.10851 494.5618 142.53125 492 142.53125 C 487.75695 142.53125 484.14503 141.05587 481.15625 138.09375 C 478.16744 135.10496 476.65624 131.49761 476.65625 127.28125 L 476.65625 126.4375 L 505.75 126.4375 C 505.61654 120.72678 504.19066 116.31432 501.46875 113.21875 C 498.58666 109.85639 494.49793 108.18754 489.1875 108.1875 z M 489.1875 112 C 493.08359 112.00003 496.16462 113.3764 498.40625 116.125 C 499.98068 118.01971 500.97925 120.40378 501.40625 123.3125 L 477.03125 123.3125 C 477.61833 120.72401 478.71135 118.44352 480.3125 116.46875 C 482.76757 113.47998 485.71834 112.00003 489.1875 112 z "
     id="text3007" />
</svg>
